# xmcd
#
# Track frame offsets:
#	150
#	18065
#	33954
#	57104
#	73135
#	89314
#	114720
#	136304
#	155862
#	164423
#	185178
#	202870
#	222578
#	241674
#	262954
#	274781
#
# Disc length: 4033 seconds
#
# Revision: 1
# Processed by: cddbd v1.5.2PL0 Copyright (c) Steve Scherf et al.
# Submitted via: audiograbber 1.83.01
#
DISCID=e50fbf10
DTITLE=Doda Hug and Efisio Contini - sorriso clandestino
DYEAR=2016
DGENRE=folk
TTITLE0=par la fenêtre
TTITLE1=gueti reis
TTITLE2=sorriso clandestino
TTITLE3=emigrant eyes
TTITLE4=clandestini
TTITLE5=welcome to the 21st century
TTITLE6=ronda final (cortada)
TTITLE7=lily
TTITLE8=als ich noch jung an jahren
TTITLE9=vitello d'oro
TTITLE10=poverty line
TTITLE11=storia migratoria
TTITLE12=blood in the sand
TTITLE13=barrio chino
TTITLE14=webstuehl
TTITLE15=ronda final
EXTD=
EXTT0=
EXTT1=
EXTT2=
EXTT3=
EXTT4=
EXTT5=
EXTT6=
EXTT7=
EXTT8=
EXTT9=
EXTT10=
EXTT11=
EXTT12=
EXTT13=
EXTT14=
EXTT15=
PLAYORDER=
